<?xml version="1.0" encoding="utf-8" ?>	<!-- Generator: Assembly 2.4 - http://assemblyapp.co -->	<svg version="1.1" xmlns="http://www.w3.org/2000/svg" xmlns:xlink="http://www.w3.org/1999/xlink" width="200.00" height="200.00" viewBox="0 0 200.0 200.0">		<g id="document" transform="scale(0.6666666666666666 0.6666666666666666) translate(150.0 150.0)">			<path d="M-2.4869e-14,148.389 C82.0043,148.389 148.389,82.0043 148.389,1.06581e-14 C148.389,-82.0043 82.0043,-148.389 -2.4869e-14,-148.389 C-82.0043,-148.389 -148.389,-82.0043 -148.389,1.06581e-14 C-148.389,82.0043 -82.0043,148.389 -2.4869e-14,148.389 Z " fill="#ebebeb" fill-opacity="1.00" />			<path d="M-83.7108,-31.9517 L-83.7108,-9.155 C-20.7918,-9.155 30.2729,-60.2197 30.2729,-123.139 L7.47614,-123.139 C7.47615,-72.7579 -33.33,-31.9517 -83.7108,-31.9517 Z " fill="#000000" fill-opacity="1.00" />			<path d="M-48.0115,25.4747 L-46.4737,84.168 L-22.9964,83.5529 L-24.5342,24.8596 C-25.3831,-7.5391 -52.3666,-33.1448 -84.7653,-32.2959 L-84.1501,-8.8186 C-64.664,-9.32914 -48.5221,5.98853 -48.0115,25.4747 Z " fill="#444444" fill-opacity="1.00" />			<path d="M34.6941,-129.542 L8.39719,-138.718 C-16.9291,-66.1385 21.4212,13.3212 94.0006,38.6475 L103.177,12.3506 C45.0607,-7.92881 14.4147,-71.4256 34.6941,-129.542 Z " fill="#202020" fill-opacity="1.00" />			<path d="M106.376,42.169 L115.069,15.6471 C41.8683,-8.34379 -37.0115,31.5943 -61.0024,104.795 L-34.4806,113.487 C-15.2705,54.8737 47.763,22.9589 106.376,42.169 Z " fill="#676767" fill-opacity="1.00" />		</g>	</svg>